<?xml version="1.0" standalone="no"?><!DOCTYPE svg PUBLIC "-//W3C//DTD SVG 1.1//EN" "http://www.w3.org/Graphics/SVG/1.1/DTD/svg11.dtd"><svg t="1712074492340" class="icon" viewBox="0 0 1288 1024" version="1.1" xmlns="http://www.w3.org/2000/svg" p-id="2030" xmlns:xlink="http://www.w3.org/1999/xlink" width="251.5625" height="200"><path d="M175.684747 335.147141c71.254953 260.195239 374.564118 403.970026 677.477365 321.130615s490.722339-360.897235 419.446819-621.087332L175.684747 335.147141z" fill="#00DF9A" p-id="2031"></path><path d="M175.684747 335.147141l96.516577-26.382535a448.919571 448.919571 0 0 0 66.550213 131.084844c166.16729 226.120584 511.510604 261.187605 771.423045 78.366051-69.707273 62.164265-157.081744 110.733631-257.007329 138.067397-302.913247 82.834268-606.222412-60.94566-677.482506-321.135757z" fill="#00A874" opacity=".3" p-id="2032"></path><path d="M1284.589306 133.686591c8.06233 7.183083 2.473202 9.671711-2.642881 22.546757-2.241821 5.645688-15.451085 7.985203-18.76754 15.584772-2.622314 6.021038 6.818016 18.27907 3.491276 25.349034-2.894829 6.123874-14.03195 8.818173-17.47695 15.620764-3.105642 6.1393-2.005299 14.890629-5.573703 21.502974-3.306172 6.118732-17.003906 6.689471-20.705996 13.152703-3.496419 6.072456 0.370209 16.633697-3.486135 22.958101-3.671239 6.010755-11.255383 9.717987-15.271122 15.908705-3.840919 5.928486-11.867256 9.059837-16.021824 15.111726-4.005456 5.841076-8.196016 11.435345-12.509979 17.35869-4.180277 5.743382-9.316927 10.58695-13.785145 16.376607-4.349956 5.630262 2.771426 20.418056-1.856187 26.063744-4.519635 5.501717-13.872555 7.121382-18.664704 12.623099-4.684172 5.378314-2.041291 17.605496-6.987696 22.947817-4.843568 5.239486-11.913532 8.797606-17.029614 13.980533-5.023531 5.085232-19.466824 0.642724-24.742303 5.655971-5.182926 4.925837-6.540359 13.893122-11.975234 18.731548-5.342322 4.756158-11.805554 8.190875-17.38954 12.828771-5.506859 4.571053-15.656756 3.06965-21.394996 7.507016-5.666255 4.380807-6.324404 15.17857-12.227182 19.405123-5.815367 4.175135-15.620764 2.282956-21.677794 6.308978-5.959337 3.95918-4.637896 19.245727-10.833756 23.035228-6.108449 3.743225-14.222197 4.344814-20.546601 7.892651-6.236994 3.511844-12.330017 7.481307-18.788107 10.792621-6.37068 3.265038-10.021352 12.617957-16.607988 15.687607-6.4838 3.01309-16.340615-1.043784-23.035228 1.758493-6.591777 2.761142-11.913532 9.167815-18.721265 11.70786-6.704897 2.493769-17.888294-7.830949-24.783437-5.542851-6.782024 2.241821-10.504681 14.129644-17.482093 16.150368-6.864292 1.97959-14.43301 1.624806-21.49269 3.373016-6.941419 1.717359-12.947032 8.046904-20.05813 9.532882-6.992837 1.455127-14.463861 1.393426-21.636661 2.606889-7.02883 1.187754-14.258189 2.082426-21.472123 3.054224-7.069964 0.935806-13.903405 5.856501-21.137907 6.550643-7.105956 0.699284-15.52307-15.024316-22.788421-14.561555-7.121382 0.442194-13.836562 5.491434-21.11734 5.702247-7.126524 0.20053-14.170779 4.540202-21.456698 4.509352-7.131665-0.020567-14.03195-7.815524-21.317869-8.06233-7.121382-0.251948-14.782652 10.47383-22.058288 9.990502-7.11624-0.462761-15.070592 6.344971-22.330802 5.655971-7.100815-0.673575-14.402159-2.622314-21.63666-3.516986-7.075106-0.874105-12.232323-16.561712-19.446258-17.64663-7.049397-1.064351-14.258189-0.760985-21.43613-2.036149-7.018546-1.244314-15.312256 3.964322-22.454206 2.498911-6.987695-1.413993-15.440801 3.002806-22.546757 1.378-6.951703-1.588814-11.286233-14.602689-18.351056-16.392033-6.905427-1.748209-13.296674-5.373173-20.31522-7.311628-6.869434-1.897321-15.168286 1.105485-22.145698-0.982082-6.833441-2.03615-14.217055-2.601747-21.14819-4.823001-6.792307-2.185262-11.378786-11.106271-18.268787-13.466353-6.751173-2.318948-18.62357 9.491748-25.472437 6.992837-6.710038-2.442351-13.378943-5.676538-20.181533-8.278285-6.663762-2.570896-14.119361-3.763792-20.870534-6.504367-6.617486-2.678874-6.874576-20.978511-13.579472-23.821922-6.576352-2.781709-13.48692-4.740732-20.145541-7.692121-6.540359-2.889687-15.492219-0.514179-22.109705-3.55812-6.488941-2.992523-9.486606-13.430361-16.057817-16.582279a1618.584686 1618.584686 0 0 1-19.389697-9.430046c-6.416956-3.182769-15.677324 1.732784-22.166265-1.599098 9.322069-5.460583 8.216584-3.136493 21.302444 1.60424 5.691964 2.061859 9.599726 12.79792 17.482092 15.430517 6.216426 2.077284 11.67701 9.106114 19.163459 11.430204 6.452949 2.005299 15.271122-1.912747 22.603317 0.20053 6.602061 1.892179 15.646473-3.84606 22.922109-1.902463 6.710038 1.794485 12.072927 9.702561 19.31257 11.486763 6.787165 1.676224 15.574488-4.380807 22.803848-2.735434 6.854009 1.557963 14.299323 0.473045 21.523541 1.97959 6.905427 1.419135 12.211756 11.209106 19.441115 12.556256 6.951703 1.306015 13.574331 5.218919 20.80369 6.437524 6.987695 1.17747 14.597547-0.827829 21.837191 0.246806 7.02883 1.048926 12.731077 12.885331 19.97072 13.821137 7.054539 0.915239 16.186361-14.664391 23.436287-13.867413 7.080248 0.771269 13.260681 10.993151 20.51575 11.635875 7.105956 0.622157 14.582122-2.509194 21.847474-2.025866 7.126524 0.483328 14.350741-0.473045 21.610952-0.123403 7.141949 0.323933 14.247905 1.938456 21.508115 2.118418 7.152233 0.174821 14.314749 1.557963 21.574959 1.57853 7.157374 0.020567 14.263331-4.658464 21.5184-4.807575 7.157374-0.133687 14.17592-2.000157 21.420705-2.303523 7.162516-0.318791 14.756943 7.712688 21.991444 7.213934 7.152233-0.483328 14.355883-1.264881 21.569817-1.928172 7.141949-0.663291 13.08586-12.124345 20.274086-12.977883 7.121382-0.83297 15.132294 5.907919 22.305093 4.879561 7.100815-1.023217 15.358533 4.812717 22.49534 3.578687 7.069964-1.208321 14.150211-3.383299 21.240743-4.802434 7.039113-1.403709 15.070592 0.755843 22.12513-0.853537 6.987695-1.604239 14.319891-3.023374 21.31787-4.838426 6.951703-1.799627 9.337494-20.335787 16.289196-22.356512 6.890001-1.995015 15.389383 1.676224 22.284527-0.54503 6.823158-2.205829 12.545972-7.383613 19.374272-9.800255 6.756315-2.416642 17.785458 6.452949 24.531489 3.810068 6.679188-2.61203 12.746502-7.280777 19.394839-10.12933 6.591777-2.817702 8.278285-16.602846 14.849496-19.662213 6.499225-3.023374 17.739182 3.774075 24.207556 0.524463 6.401531-3.223904 15.533353-1.773918 21.898892-5.244628 6.298695-3.424433 3.285605-23.38487 9.532882-27.050967 6.180434-3.624963 15.903562-1.14662 22.03772-5.008106 6.062173-3.820351 13.106428-6.134158 19.117183-10.196173 5.928486-4.005456 10.581808-9.861957 16.453734-14.109077 5.805083-4.185419 13.708017-5.609695 19.451399-10.036778 5.666255-4.375665 5.985046-15.368816 11.589599-19.986145 5.522285-4.550486 16.911354-2.128702 22.377079-6.910569 5.383456-4.715023 7.069964-13.569189 12.386576-18.520734 5.239486-4.864135 13.620607-6.478658 18.79325-11.584458 5.08009-5.023531 5.203493-14.906055 10.211599-20.160966 4.930978-5.167501 15.507644-5.116083 20.366638-10.509822 4.79215-5.311471 11.234815-9.358061 15.949838-14.89063 4.627613-5.445158 0.318791-18.320205 4.879561-23.981318 4.488784-5.563419 12.581965-8.211442 16.993622-13.990815 4.339672-5.676538 9.198666-10.972584 13.45607-16.865078 4.180277-5.784516 6.997979-12.535689 11.116554-18.531018 4.036307-5.892494 17.471809-5.661113 21.441272-11.759278 3.90262-5.990188 2.678874-15.430518 6.499225-21.626377 3.753508-6.08274-2.509194-18.155667 1.177471-24.438937 3.619822-6.175292 15.970406-7.697263 19.502816-14.057659z" fill="#006B33" opacity=".64" p-id="2033"></path><path d="M175.684747 335.147141c50.297009 183.675092 336.622835 265.403875 639.525798 182.569606 302.923531-82.829126 507.700536-298.861515 457.398386-482.526323L175.684747 335.147141z" fill="#D6FFBD" p-id="2034"></path><path d="M175.684747 335.147141c50.297009 183.675092 336.622835 265.403875 639.525798 182.569606 302.923531-82.829126 507.700536-298.861515 457.398386-482.526323L175.684747 335.147141z" fill="#D6FFBD" opacity=".75" p-id="2035"></path><path d="M219.821889 323.079355c43.134493 157.534222 303.088068 223.709084 580.626572 147.821376 277.543645-75.908274 467.558567-265.126218 424.408648-422.655297L219.821889 323.079355z" fill="#E66C6C" p-id="2036"></path><path d="M386.256553 277.569354l838.600556-229.32392c20.546601 75.044453-11.887823 157.246281-81.389424 230.995003-296.470582 165.971902-615.868414 169.134104-757.211132-1.671083z" fill="#FF7878" p-id="2037"></path><path d="M653.254383 204.555909l571.602726-156.310475c14.561555 53.160987 7.409322 88.77818-7.373329 116.78552-43.083075 30.326289-395.049017 158.254072-564.229397 39.524955z" fill="#FF8F8F" p-id="2038"></path><path d="M1269.930058 756.48614c-185.083943 289.030409-599.558649 353.986666-925.800207 145.075659C17.90372 692.661076-96.521718 289.025267 88.562224 0l1181.367834 756.48614z" fill="#00DF9A" p-id="2039"></path><path d="M1269.930058 756.48614l-103.946466-66.550214a586.493356 586.493356 0 0 1-129.506314 134.60183c-284.166274 213.77-706.250832 132.200613-942.886381-182.173689 58.379906 100.187816 142.921249 190.287436 250.538954 259.197732 326.236415 208.911007 740.716264 143.954749 925.800207-145.075659z" fill="#00A874" opacity=".3" p-id="2040"></path><path d="M36.552999 115.556632c-10.124188 3.897478 5.671397 7.075106 6.411814 21.019646 0.323933 6.08274-11.21939 14.150211-10.540673 22.464489 0.534746 6.566068 15.66704 12.407144 16.50001 20.227809 0.719851 6.756315-7.789815 14.983182-6.807732 22.598176 0.884388 6.848867 7.177942 13.250398 8.314277 20.721421 1.048926 6.900285-10.07277 16.083525-8.792464 23.461997 1.198038 6.925994 11.630733 12.437995 13.060152 19.749623 1.352291 6.936277-1.820194 15.008891-0.246806 22.258817 1.501403 6.920852-1.984732 15.276264-0.267374 22.449064 1.655657 6.905427 3.27018 14.155353 5.141792 21.276735 1.809911 6.890001 2.545187 14.412443 4.565912 21.472123 1.959023 6.85915 19.106899 9.35292 21.276735 16.361182 2.118418 6.823158-1.856187 15.661898 0.467903 22.603317 2.272672 6.787165 14.798077 9.98536 17.281563 16.865078 2.432068 6.746031 2.262388 14.330174 4.905269 21.143048 2.596605 6.68433-7.836091 18.690414-5.028672 25.431303 2.756 6.62777 11.209106 10.988009 14.181062 17.651772 2.920538 6.560927 4.416799 13.908547 7.553292 20.495183 3.090217 6.488941-0.812403 16.685115 2.488627 23.184339 3.259896 6.411815 14.48957 8.890158 17.965421 15.307115 3.429575 6.324404 0.426769 16.494869 4.0723 22.808989 3.604396 6.236994 19.775332 5.095516 23.595683 11.301659 3.779217 6.123874 4.406516 14.222197 8.401688 20.304936 3.948896 6.021038 8.535375 11.630733 12.705368 17.595212 4.123717 5.902777 14.139928 7.429889 18.489884 13.276107 4.298538 5.779374 2.12356 16.402316 6.643195 22.119989 4.473359 5.650829 12.294025 8.504524 16.983339 14.073085 4.643038 5.506859-1.367717 20.443765 3.50156 25.852929 4.812717 5.362889 17.831734 3.352448 22.87069 8.617644 4.977255 5.213777 8.319419 12.088353 13.522913 17.183868 5.141792 5.038956 13.903405 6.272986 19.271436 11.209107 5.296046 4.869277 9.594584 10.782338 15.111727 15.533353 5.455441 4.699598 10.81833 9.455755 16.489727 14.03195 5.599411 4.519635 13.882838 5.450299 19.703346 9.84139 5.743382 4.334531 1.403709 22.680444 7.368188 26.88643 5.877068 4.149426 14.916338 4.195702 21.014504 8.216584 6.005613 3.954038 14.628398 4.087725 20.849966 7.89265 6.129016 3.75865 8.360554 14.540988 14.700383 18.155668 6.242135 3.55812 18.366481-3.239329 24.81943 0.174821 6.350113 3.362732 16.206928-0.467903 22.762713 2.745717 6.447807 3.167344 12.206614 7.249927 18.854951 10.268158 6.540359 2.966814 6.833441 20.31522 13.574331 23.138064 6.62777 2.771426 14.083368 4.087725 20.901384 6.710038 6.694613 2.58118 15.975548-1.542538 22.860407 0.884389 6.766598 2.390933 15.564204-1.49112 22.515907 0.750701 6.8283 2.200687 10.047061 16.140085 17.055324 18.19166 6.884859 2.015582 13.445786 5.897635 20.505466 7.77439 6.936277 1.830478 15.373958-1.727642 22.485056-0.035993 6.977412 1.650515 14.417585 1.52197 21.564676 3.038799 7.018546 1.485978 12.715651 10.237308 19.898735 11.584457 7.054539 1.321441 16.911354-13.25554 24.125287-12.078069 7.080248 1.156903 13.913689 2.930821 21.153332 3.95918 7.111098 0.997508 14.309607 0.195388 21.564676 1.059209 7.136807 0.848396 12.355726 19.405123 19.636503 20.119832 7.147091 0.699284 14.582122 0.318791 21.873183 0.894672 7.162516 0.550172 14.875204-5.162359 22.171407-4.740733 7.1728 0.411343 14.057659 9.460897 21.364146 9.748838 7.177942 0.28794 14.566697 0.48847 21.878324 0.63244 7.177942 0.149112 14.592406-6.689471 21.89375-6.663762 7.177942 0.025709 14.350741-7.054539 21.652086-7.152233 7.177942-0.102836 14.602689 9.147248 21.914317 8.931293 7.177942-0.210813 14.710667 4.833284 22.012012 4.509352 7.177942-0.323933 14.139928-7.393897 21.430989-7.83095 7.177942-0.437052 13.810853-9.363203 21.096772-9.913374 7.177942-0.539888 14.906055 5.573702 22.197116 4.920694 7.162516-0.642724 13.517771-9.733412 20.788265-10.478972 7.152233-0.74556 13.918831-4.313963 21.179041-5.157217 7.141949-0.83297 15.363674 7.321912 22.603317 6.380964 7.141949-0.930664 14.705525 0.930664 21.945168-0.107978 7.131665-1.012933 13.805711-5.429732 21.029929-6.535217 7.111098-1.105485 16.160652 9.224375 23.359161 8.031479 7.111098-1.182612 11.286233-19.77019 18.489884-21.055638 7.095673-1.259739 17.271279 3.835777 24.464646 2.46806-7.177942-8.14974-9.157531 4.062016-23.174057 4.99268-6.072456 0.395918-13.312099 2.26753-21.677794 2.637739-6.576352 0.28794-13.934256-0.88953-21.816624-0.694142-6.792307 0.159396-14.098794-1.069493-21.796056-1.012933-6.905427 0.051418-14.222197 4.961829-21.801197 4.889844-6.967128-0.071985-14.361025 1.547679-21.873183 1.357433-7.018546-0.174821-14.016525-9.373487-21.477265-9.676852-7.05968-0.293082-14.283898-0.411343-21.708646-0.827829-7.080248-0.395918-15.111727 10.592091-22.505623 10.057346-7.100815-0.509037-13.759435-9.291218-21.122482-9.933943-7.090531-0.617015-13.564047-8.756472-20.8911-9.517456-7.090531-0.730134-14.299323-0.617015-21.600668-1.480836-7.100815-0.843254-13.666883-5.753665-20.942519-6.735748-7.095673-0.961515-14.073085-2.318948-21.317869-3.41415-7.090531-1.069493-17.122167 15.913846-24.346385 14.700383-7.080248-1.182612-13.19898-8.741046-20.40263-10.067628-7.064822-1.306015-14.875204 0.514179-22.037721-0.940948-7.044255-1.413993-11.461054-15.569346-18.603003-17.137593-7.02883-1.542538-14.469003-1.0335-21.569817-2.720008-7.008262-1.660799-17.122167 8.890158-24.192131 7.080248-6.967128-1.799627-10.998293-14.993465-18.027123-16.942205-6.956844-1.917888-12.191189-9.517457-19.173742-11.589599-6.925994-2.03615-19.739339 15.014032-26.675617 12.808204-6.884859-2.18012-11.517614-11.718144-18.42304-14.052517-6.838583-2.308665-13.049868-6.62777-19.903877-9.106114-6.792307-2.447493-14.417585-2.853695-21.220175-5.460583-6.746031-2.591463-12.103778-8.823315-18.849809-11.569032-6.689471-2.72515-16.911354 2.684015-23.595684-0.195388-6.632912-2.874262-9.332352-14.803219-15.95498-17.84716-6.57121-3.007948-15.625906-0.868963-22.176549-4.051732-6.504367-3.146777-10.81833-10.81833-17.296988-14.155353-6.432382-3.30103-16.304622-0.267373-22.706153-3.743224-6.355255-3.445001-8.699912-14.242764-15.019174-17.857444-6.272986-3.594113-11.286233-9.229517-17.512943-12.993308-6.185576-3.748366-18.865235 2.822844-24.999393-1.095202-6.093023-3.897478-9.502032-12.160338-15.538495-16.232637-5.995329-4.041448-11.558748-8.859308-17.492376-13.075577-5.892494-4.19056-12.803062-7.157374-18.628713-11.522756-5.784516-4.334531-4.144284-18.263645-9.856815-22.778138-5.671397-4.483643-15.281406-3.95918-20.875675-8.617643-5.553135-4.622471-19.173742-0.05656-24.639467-4.858994-5.42459-4.771583-4.555628-16.782809-9.897949-21.734354-5.296046-4.910411-15.543637-4.843568-20.757415-9.944226-5.162359-5.038956-4.59162-16.001257-9.661427-21.230459-5.028673-5.182926-14.299323-6.509509-19.230301-11.872397-4.884702-5.311471-10.93145-9.867099-15.7236-15.358533-4.740732-5.445158-10.088196-10.684644-14.731234-16.309764-4.596762-5.563419 2.586321-20.65972-1.907605-26.39796-4.442508-5.676538-13.240114-7.969778-17.579787-13.826278-4.293396-5.7948-7.296203-12.499696-11.486763-18.4796-4.139143-5.902777-15.271122-7.147091-19.302287-13.224689-3.984889-6.015897 1.52197-18.196802-2.35494-24.382378-3.830635-6.108449-15.003749-7.764106-18.721265-14.042234-3.671239-6.206143-1.228888-15.965264-4.79215-22.346227-3.511844-6.293553-11.013718-10.427554-14.412443-16.890787-3.35759-6.380964-7.321912-12.535689-10.566382-19.070906-3.198195-6.458091-7.758964-12.360868-10.84404-18.978354-3.043941-6.524934-1.49112-15.199137-4.421941-21.888609-2.894829-6.596919-15.029458-9.399196-17.806025-16.160652-2.740575-6.658621-1.413993-15.132294-4.04659-21.960593-2.591463-6.730606-1.316299-14.988324-3.794643-21.862899-2.442351-6.776882 1.14662-15.636189-1.187754-22.567325-2.298381-6.8283-12.99845-10.936591-15.183711-17.908861-2.154411-6.869434-2.437209-14.391876-4.483643-21.410422-2.015582-6.91571-4.545344-13.754293-6.452949-20.808832-1.881896-6.961986-12.576823-11.790129-14.350741-18.890944-1.743067-6.987695 7.095673-16.659406 5.460583-23.780787-1.609381-7.02883 1.49112-15.101443-0.020567-22.258818-1.496261-7.039113-8.283427-12.65395-9.666569-19.842175z" fill="#006B33" opacity=".64" p-id="2041"></path><path d="M1269.930058 756.48614c-130.64265 204.026304-501.011065 200.061983-827.237197-8.833599C116.451304 538.741534-42.100992 204.026304 88.562224 0l1181.367834 756.48614z" fill="#D6FFBD" p-id="2042"></path><path d="M1269.930058 756.48614c-130.64265 204.026304-501.011065 200.061983-827.237197-8.833599C116.451304 538.741534-42.100992 204.026304 88.562224 0l1181.367834 756.48614z" fill="#D6FFBD" opacity=".75" p-id="2043"></path><path d="M1222.399333 726.057015c-112.055072 174.995747-445.18663 161.683648-744.084138-29.709274C179.402263 504.939394 27.935356 207.928924 139.995569 32.938319l1082.403764 693.118696z" fill="#E66C6C" p-id="2044"></path><path d="M1043.146182 611.271652L139.995569 32.938319c-53.376942 83.353589-46.852008 194.40087 6.807733 308.522942 286.392669 307.119233 662.987795 425.601544 896.34288 269.810391z" fill="#FF7878" p-id="2045"></path><path d="M755.612035 427.144082L139.995569 32.938319c-37.812738 59.038055-43.149918 104.6766-36.517006 143.862197 39.216447 52.122345 406.011317 333.162409 652.133472 250.343566z" fill="#FF8F8F" p-id="2046"></path></svg>