<?xml version="1.0" standalone="no"?><!DOCTYPE svg PUBLIC "-//W3C//DTD SVG 1.1//EN" "http://www.w3.org/Graphics/SVG/1.1/DTD/svg11.dtd"><svg t="1712074518976" class="icon" viewBox="0 0 1024 1024" version="1.1" xmlns="http://www.w3.org/2000/svg" p-id="2386" xmlns:xlink="http://www.w3.org/1999/xlink" width="200" height="200"><path d="M84.967302 555.852241s2.486762-98.099782 67.957344-132.761677c75.58313-40.025831 190.585254-191.510363 488.296471-130.308864 149.405157 30.719571 287.153089 85.839962 316.535919 12.595067 29.399805-73.253382-62.304841-214.065208-241.648743-276.314882C516.3356-40.274635 298.124375 26.96978 197.236534 100.715423 95.504213 175.084877 42.632941 276.019398 45.900529 335.311268c3.271832 59.287626-43.879039 171.009431-43.879039 171.009431s-5.873171 6.929833 12.374398 13.477739c18.243326 6.543663 19.04537 16.13849 24.753041 26.946992 5.711914 10.78304 45.818374 9.10681 45.818373 9.106811z" fill="#FFCC66" p-id="2387"></path><path d="M902.997353 219.2737c2.503736 77.603094-201.962401-20.738575-430.247982-13.401354C244.459547 213.218054 63.261182 419.704154 60.765933 342.096817c-2.499493-77.607337 147.160282-288.591676 374.427394-312.245618 314.770573-32.756509 465.304533 111.810921 467.804026 189.422501z" fill="#FFFFC9" opacity=".51" p-id="2388"></path><path d="M839.534004 178.191208c-1.311279 29.611986-63.27663-70.495029-340.177131-66.336281-245.926313 3.687706-323.987717 122.144137-322.680682 92.527908 1.319766-29.624717 156.988508-166.048638 334.562821-158.180965 177.561582 7.867673 329.602028 102.373108 328.294992 131.989338z" fill="#FFFFC9" opacity=".71" p-id="2389"></path><path d="M56.284669 417.174956c-12.391373-19.261795-4.315762-64.719461-10.388383-81.990997l0.004243 0.131552C49.172361 394.598894 2.02149 506.324942 2.02149 506.324942s-5.873171 6.929833 12.374398 13.47774c18.243326 6.543663 19.04537 16.13849 24.753041 26.946992 5.716157 10.787284 45.826861 9.10681 45.826861 9.10681s1.650768-64.855257 37.462684-107.741288c-20.921051-18.621008-53.770919-11.686932-66.153805-30.94024z" fill="#85CC85" p-id="2390"></path><path d="M79.938612 431.284996c-36.07502 65.04622-38.604218 116.682598-38.650899 117.845349 9.976753 8.105316 43.683833 6.721895 43.683833 6.721896s1.650768-64.855257 37.462684-107.741289c-12.24709-10.901862-28.568055-13.053378-42.495618-16.825956z" fill="#7CBD7C" p-id="2391"></path><path d="M82.03496 431.857884c-4.239377-1.090611-8.26233-2.300042-11.950036-3.865938L22.03865 523.273964c10.957029 6.263584 12.331962 14.432554 17.101791 23.467223 2.631045 4.960793 12.531412 7.269322 22.461485 8.325984 16.545877-35.574273 19.978967-90.563111 20.433034-123.209287z" fill="#8FDB8F" p-id="2392"></path><path d="M957.757036 305.376767c1.404638-3.488256 2.440082-7.175963 3.29305-10.957029a23.934021 23.934021 0 0 0-29.238548 1.684717 23.934021 23.934021 0 0 0-2.317017 33.770734c0.971789 1.120316 2.036938 2.10908 3.157254 3.00024 11.351686-5.771324 19.936531-14.61503 25.105261-27.498662z" fill="#8B5C29" opacity=".41" p-id="2393"></path><path d="M94.990735 587.692127s33.541579-92.218124 106.633703-104.278493c84.388643-13.92332 241.576601-120.99836 504.384038 31.665898 131.900222 76.61433 244.979985 172.660199 296.119859 112.557798 51.161092-60.106645 8.971014-222.768874-141.291355-338.797954-167.368404-129.243715-395.632767-134.845295-514.729984-96.992197-120.098712 38.171369-202.306134 117.064523-218.058455 174.319455-15.743833 57.250688-95.960997 148.191482-95.960997 148.191482s-7.774313 4.706175 7.447554 16.711379c15.217624 12.005203 12.921825 21.349656 14.899353 33.418514 1.990258 12.039152 40.556284 23.204119 40.556284 23.204118z" fill="#FFCC66" p-id="2394"></path><path d="M977.578989 528.595464c-22.295984 74.369455-184.898802-83.858191-403.678673-149.473055-218.77987-65.602134-456.218941 72.578647-433.91447-1.790808 22.300227-74.377942 231.264603-226.846993 454.262632-177.035373 308.859209 68.997031 405.634981 253.921294 383.330511 328.299236z" fill="#FFFFC9" opacity=".51" p-id="2395"></path><path d="M926.413653 468.807091c-10.651488 27.664164-37.585749-86.95179-301.44136-171.026406-234.345471-74.674995-346.012109 12.819978-335.356378-14.839942 10.668463-27.672651 201.627155-107.537595 367.489074-43.632909 165.853432 63.904686 279.968639 201.839336 269.308664 229.499257z" fill="#FFFFC9" opacity=".71" p-id="2396"></path><path d="M111.871858 447.083996c-5.622798-22.202624 16.482223-62.733446 16.219119-81.040427l-0.038193 0.127309c-15.743833 57.246445-95.960997 148.187238-95.960997 148.187238s-7.774313 4.706175 7.447555 16.711379c15.217624 12.005203 12.921825 21.349656 14.899352 33.418514 1.990258 12.043396 40.556284 23.208362 40.556284 23.208362s22.181406-60.972344 69.760883-90.24484c-13.910589-24.30746-47.261205-28.173398-52.884003-50.367535z" fill="#85CC85" p-id="2397"></path><path d="M129.813887 467.988072c-54.882748 50.202034-73.690475 98.358643-74.10635 99.44501 6.883153 10.859426 39.283198 20.259046 39.283198 20.259045s22.181406-60.972344 69.760882-90.244839c-8.139265-14.233104-22.928283-21.45999-34.93773-29.459216z" fill="#7CBD7C" p-id="2398"></path><path d="M131.617426 469.189017c-3.666488-2.376428-7.099578-4.799535-10.095574-7.460286l-75.841991 75.069652c8.393882 9.420838 7.103821 17.602539 8.75459 27.685382 0.916622 5.542169 9.569365 10.8764 18.650713 15.039392 26.997916-28.478939 47.728003-79.52121 58.532262-110.33414z" fill="#8FDB8F" p-id="2399"></path><path d="M1002.128335 627.63733c2.440082-2.8602 4.595841-6.030185 6.607318-9.340209a23.934021 23.934021 0 0 0-28.258271-7.693685 23.934021 23.934021 0 0 0-12.930313 31.275485c0.568645 1.37069 1.264599 2.648019 2.041182 3.844721 12.590823-1.858706 23.543608-7.515452 32.540084-18.086312z" fill="#8B5C29" opacity=".41" p-id="2400"></path><path d="M89.775325 633.370462s66.332037-72.319786 138.460859-55.434419c83.281058 19.49095 269.508113-19.147217 453.719449 222.594886 92.451523 121.325119 160.077864 253.382354 230.347981 217.472835 70.291335-35.901032 93.682173-202.310378-0.619569-367.073199-105.042346-183.532356-313.722398-276.208791-438.230233-286.902715-125.556009-10.78304-231.727157 30.566801-268.22654 77.41213-36.486652 46.841086-145.441616 100.085797-145.441615 100.085797s-8.979502 1.362202 0.475285 18.290005c9.454787 16.919316 3.751361 24.672411 0.954815 36.571524-2.779572 11.890625 28.559568 36.983155 28.559568 36.983156z" fill="#FFCC66" p-id="2401"></path><path d="M927.597623 917.120167c-49.102936 60.144838-138.626361-148.331521-315.538668-292.797105-176.925038-144.457096-449.195749-107.851623-400.084326-167.99646 49.111424-60.144838 300.558687-120.862564 487.426529 10.626026 258.818433 182.123474 277.307888 390.018457 228.196465 450.167539z" fill="#FFFFC9" opacity=".51" p-id="2402"></path><path d="M898.380294 841.316368c-20.441521 21.468478-1.38342-94.717616-212.855776-273.514091-187.818413-158.809021-324.492708-120.803153-304.051187-142.267388 20.458496-21.468478 227.449588-22.028636 356.141632 100.573813 128.687801 122.602449 181.211095 293.739188 160.765331 315.207666z" fill="#FFFFC9" opacity=".71" p-id="2403"></path><path d="M159.268859 509.974456c3.314268-22.660935 39.270467-51.627891 46.043286-68.636323l-0.084873 0.101847c-36.486652 46.841086-145.441616 100.081553-145.441615 100.081553s-8.979502 1.362202 0.475285 18.290006c9.454787 16.919316 3.751361 24.672411 0.954815 36.571524-2.779572 11.894869 28.559568 36.983155 28.559568 36.983155s43.857821-47.812876 99.029135-56.605658c-3.526449-27.774498-32.849869-44.129413-29.535601-66.786104z" fill="#85CC85" p-id="2404"></path><path d="M167.832486 536.157596c-69.939114 25.330173-105.772248 62.593407-106.570049 63.437888 2.193952 12.667208 28.517132 33.770734 28.517131 33.770734s43.857821-47.812876 99.029135-56.605658c-2.066643-16.261555-12.955774-28.606248-20.976217-40.602964z" fill="#7CBD7C" p-id="2405"></path><path d="M169.037674 537.965379c-2.478275-3.607078-4.718906-7.163232-6.471522-10.766066l-98.821197 40.25923c4.141774 11.920331-0.190963 18.990203-2.529198 28.92452-1.27733 5.470027 4.667983 13.715382 11.457776 21.044115 35.854352-15.951771 74.568905-55.145852 96.364141-79.461799z" fill="#8FDB8F" p-id="2406"></path><path d="M912.303614 1018.003764c3.348217-1.705936 6.556394-3.806528 9.679699-6.098083a23.934021 23.934021 0 0 0-23.148952-17.937785 23.934021 23.934021 0 0 0-23.934021 23.934021c0 1.485267 0.15277 2.928098 0.411631 4.332737 12.348937 3.114818 24.629975 2.087861 36.991643-4.23089z" fill="#8B5C29" opacity=".41" p-id="2407"></path></svg>